# xmcd
#
# Track frame offsets:
#	150
#	15500
#	32580
#	49907
#	67635
#	87615
#	101882
#	126595
#	139027
#	154692
#	177307
#	192182
#	215755
#
# Disc length: 4302 seconds
#
# Revision: 2
# Processed by: cddbd v1.5.1PL2 Copyright (c) Steve Scherf et al.
# Submitted via: audiograbber 1.82.01
#
DISCID=b710cc0d
DTITLE=Long John Baldry - Right To Sing The Blues
DYEAR=1996
DGENRE=Blues
TTITLE0=They Raided The Joint
TTITLE1=Easy Street
TTITLE2=I'm Shakin'
TTITLE3=Midnight Hours Blues
TTITLE4=Right To Sing The Blues
TTITLE5=It's Too Late Brother
TTITLE6=East Virginia Blues
TTITLE7=Whoa Back Buck
TTITLE8=Morning Dew
TTITLE9=You're The One
TTITLE10=Work So Hard
TTITLE11=Midnight In Berlin
TTITLE12=Interview
EXTD=
EXTT0=
EXTT1=
EXTT2=
EXTT3=
EXTT4=
EXTT5=
EXTT6=
EXTT7=
EXTT8=
EXTT9=
EXTT10=
EXTT11=
EXTT12=
PLAYORDER=
